
<svg width="36" height="36" viewBox="0 0 36 36" fill="none" xmlns="http://www.w3.org/2000/svg">
<path d="M34.1053 29.6842V31.6632C34.1053 33.84 32.4 35.6211 30.3158 35.6211H3.78947C1.68632 35.6211 0 33.84 0 31.6632V3.95789C0 1.78105 1.68632 0 3.78947 0H30.3158C32.4 0 34.1053 1.78105 34.1053 3.95789V5.93684H17.0526C14.9495 5.93684 13.2632 7.7179 13.2632 9.89474V25.7263C13.2632 27.9032 14.9495 29.6842 17.0526 29.6842H34.1053ZM17.0526 25.7263H36V9.89474H17.0526V25.7263ZM24.6316 20.7789C23.0589 20.7789 21.7895 19.4531 21.7895 17.8105C21.7895 16.168 23.0589 14.8421 24.6316 14.8421C26.2042 14.8421 27.4737 16.168 27.4737 17.8105C27.4737 19.4531 26.2042 20.7789 24.6316 20.7789Z" fill="black"/>
</svg>
